<svg viewBox="0 0 122.37 122.37" xmlns="http://www.w3.org/2000/svg" xmlns:xlink="http://www.w3.org/1999/xlink" id="_Режим_изоляции" overflow="hidden"><defs><linearGradient x1="0" y1="61.19" x2="122.37" y2="61.19" gradientUnits="userSpaceOnUse" id="linear-gradient"><stop offset="0" stop-color="#E64A4A"/><stop offset="1" stop-color="#B03F67"/></linearGradient><linearGradient x1="26.69" y1="61.18" x2="95.68" y2="61.18" xlink:href="#linear-gradient" id="linear-gradient-2"></linearGradient></defs><path d="M61.18 122.37C27.45 122.37 0 94.92 0 61.18 0 44.84 6.37 29.48 17.92 17.92 29.48 6.37 44.84 0 61.18 0 77.52 0 92.89 6.37 104.45 17.92 116.01 29.48 122.37 44.84 122.37 61.18 122.37 77.52 116 92.89 104.45 104.45 92.89 116.01 77.53 122.37 61.18 122.37ZM61.18 5C46.18 5 32.07 10.84 21.46 21.46 10.84 32.07 5 46.18 5 61.18 5 92.16 30.2 117.37 61.18 117.37 76.19 117.37 90.3 111.53 100.91 100.91 111.52 90.29 117.37 76.19 117.37 61.18 117.37 46.17 111.52 32.07 100.91 21.46 90.3 10.85 76.19 5 61.18 5Z" stroke-width="0" fill="url(#linear-gradient)"/><path d="M94.04 42.67C96.61 39.69 96.1 35.15 92.93 32.82 89.98 30.66 85.85 31.24 83.61 34.13 79.35 39.63 71.84 48.94 62.1 58.85 54.54 50.76 48.67 43.45 45.1 38.84 42.86 35.95 38.73 35.37 35.78 37.53L35.78 37.53C32.6 39.86 32.09 44.4 34.67 47.38 38.49 51.8 44.86 58.59 54.29 66.44 46.38 73.76 37.41 80.97 27.77 86.8 26.7 87.45 26.37 88.85 27.07 89.89 27.68 90.81 28.9 91.13 29.88 90.63 42.13 84.43 52.48 78.03 61.15 71.9 68.59 77.58 77.53 83.62 88.13 89.61 89.36 90.3 90.92 89.95 91.74 88.8L91.74 88.8C92.63 87.55 92.33 85.84 91.1 84.93 83.04 79.07 75.61 72.47 69.08 66.02 81.5 56.37 89.55 47.87 94.05 42.66Z" stroke-width="0" fill="url(#linear-gradient-2)"/></svg>